<svg width="64" height="64" viewBox="0 0 64 64" fill="none" xmlns="http://www.w3.org/2000/svg">
<circle cx="32" cy="32" r="31.5" stroke="#FFFAF1"/>
<circle cx="32" cy="32" r="27.75" stroke="#FFFAF1" stroke-width="0.5"/>
<path d="M31.4057 42.168C29.987 42.168 28.643 41.944 27.3737 41.496C26.123 41.0293 25.115 40.4133 24.3497 39.648L25.3297 38.052C25.9643 38.7053 26.8137 39.2467 27.8777 39.676C28.9603 40.1053 30.1363 40.32 31.4057 40.32C33.0297 40.32 34.271 39.9653 35.1297 39.256C36.007 38.5467 36.4457 37.5947 36.4457 36.4C36.4457 35.2053 36.0163 34.2533 35.1577 33.544C34.3177 32.8347 32.983 32.48 31.1537 32.48H29.7537V30.996L35.8017 23.408L36.0817 24.192H25.1617V22.4H37.7617V23.828L31.7137 31.416L30.7337 30.772H31.4897C33.8417 30.772 35.5963 31.2947 36.7537 32.34C37.9297 33.3853 38.5177 34.7293 38.5177 36.372C38.5177 37.4733 38.2563 38.4627 37.7337 39.34C37.211 40.2173 36.4177 40.908 35.3537 41.412C34.3083 41.916 32.9923 42.168 31.4057 42.168Z" fill="#FFFAF1"/>
</svg>
